<?xml version="1.0" encoding="UTF-8"?>
<!DOCTYPE svg PUBLIC "-//W3C//DTD SVG 1.1//EN" "http://www.w3.org/Graphics/SVG/1.1/DTD/svg11.dtd">
<!-- Creator: CorelDRAW 2021 (64-Bit) -->
<svg xmlns="http://www.w3.org/2000/svg" xml:space="preserve" width="109.935mm" height="52.166mm" version="1.1" style="shape-rendering:geometricPrecision; text-rendering:geometricPrecision; image-rendering:optimizeQuality; fill-rule:evenodd; clip-rule:evenodd"
viewBox="0 0 11797.06 5597.92"
 xmlns:xlink="http://www.w3.org/1999/xlink"
 xmlns:xodm="http://www.corel.com/coreldraw/odm/2003">
 <defs>
  <style type="text/css">
   <![CDATA[
    .fil2 {fill:#395FF1}
    .fil0 {fill:#FEC927}
    .fil1 {fill:#395FF1;fill-rule:nonzero}
   ]]>
  </style>
 </defs>
 <g id="Layer_x0020_1">
  <metadata id="CorelCorpID_0Corel-Layer"/>
  <path class="fil0" d="M8158.93 186.47l2576.33 0c583.99,0 1061.8,477.81 1061.8,1061.8l0 2901.34c0,583.99 -477.81,1061.8 -1061.8,1061.8l-3636.79 0c-583.98,0 -1061.79,-477.81 -1061.79,-1061.8l0 -1745.76c255.13,184.82 568.74,293.86 907.86,293.86 855.62,0 1549.25,-693.62 1549.25,-1549.24 0,-363.51 -125.25,-697.74 -334.87,-962zm2379.77 4125.68c38.05,10.38 70.33,17.3 96.86,21.91 26.52,4.61 50.16,6.92 71.49,6.92 103.79,0 190.27,-42.09 260.03,-126.85 69.76,-84.17 104.36,-190.84 104.36,-320.57 0,-117.04 -28.83,-211.02 -87.07,-282.51 -57.65,-71.5 -132.6,-107.23 -224.85,-107.23 -25.95,0 -57.08,6.33 -93.4,19.59 -36.9,12.69 -78.99,32.87 -127.42,59.98l0 728.76zm-600.98 -192.57l-58.82 467.59c-103.78,49 -205.83,85.9 -306.15,109.54 -100.32,23.64 -201.23,35.17 -303.85,35.17 -253.69,0 -457.78,-72.65 -613.46,-218.51 -155.09,-145.86 -232.94,-336.13 -232.94,-570.21 0,-244.46 84.75,-450.87 254.85,-619.23 170.09,-168.35 377.08,-252.53 620.38,-252.53 208.14,0 378.8,61.69 512.56,185.08 124.05,114.92 190.56,261.34 199.11,439.28l0 -1444.22 529.28 -72.65 0 1027.99c67.45,-34.59 132.6,-60.53 194.87,-78.41 62.85,-17.3 123.38,-25.94 181.61,-25.94 207,0 374.77,73.22 503.34,220.24 128.58,147.03 192.57,338.43 192.57,574.84 0,250.22 -76.09,451.43 -228.88,604.8 -152.22,152.79 -353.44,229.47 -601.93,229.47 -31.72,0 -66.88,-1.73 -106.67,-5.76 -39.21,-4.03 -83.59,-9.8 -133.18,-17.88l-192.58 -45.54 -338.43 72.65 0 -958.72c-1.08,27.46 -3.08,62.22 -5.97,104.25l-1.74 9.81 -47.27 68.61 -1037.23 28.82c8.07,102.62 50.74,186.23 127.99,250.22 77.84,64 175.86,95.71 293.48,95.71 83.59,0 175.84,-17.87 277.89,-54.2 101.48,-35.74 208.72,-89.36 321.16,-160.28zm-1008.99 -359.78l659.59 -20.17 0 -23.64c0,-80.15 -28.25,-145.87 -84.17,-197.18 -56.51,-51.32 -127.43,-77.27 -212.75,-77.27 -95.13,0 -175.28,27.68 -239.27,83.62 -64.01,55.92 -104.95,134.33 -123.4,234.65zm-1941.47 999.75l-43.84 0 -779.51 -1618.97 571.37 0 314.23 687.25 366.69 -777.2 62.27 0 346.51 777.2 327.49 -687.25 484.89 0 -802.58 1618.97 -45.54 0 -390.34 -859.07 -411.65 859.07z"/>
  <path class="fil1" d="M5191.14 856.8c118.88,50.7 208.77,118.02 268.84,201.95 60.5,83.94 90.75,183.64 90.75,298.26 0,167.86 -53.68,303.34 -160.62,406.04 -106.94,102.67 -248.4,154.23 -425.21,154.23 -144.01,0 -264.58,-36.65 -362.15,-110.35 -97.15,-73.71 -162.76,-178.09 -197.27,-313.58l197.27 -97.57c26.84,110.78 70.72,194.71 132.08,251.8 60.92,57.09 137.62,85.63 230.07,85.63 109.07,0 197.27,-31.53 265.01,-94.15 67.32,-63.07 100.98,-144.86 100.98,-245.42 0,-81.8 -23.44,-152.53 -70.73,-213.03 -46.87,-60.5 -117.6,-111.21 -212.6,-152.96l-222.41 -95c-121.42,-50.7 -212.17,-115.89 -271.4,-196 -59.65,-79.67 -89.47,-175.54 -89.47,-287.16 0,-129.94 48.14,-237.32 144.86,-322.1 96.72,-84.79 219.85,-127.39 369.82,-127.39 109.5,0 204.94,23.43 285.04,69.87 80.54,46.86 143.16,115.47 187.9,206.64l-179.8 114.62c-40.48,-70.73 -86.5,-123.14 -137.2,-157.65 -50.69,-34.51 -108.22,-51.98 -172.12,-51.98 -81.8,0 -148.7,25.14 -200.68,74.99 -51.98,49.86 -77.97,113.33 -77.97,190.88 0,64.76 20.02,121 60.07,168.28 39.63,47.72 101.83,89.47 185.76,126.12l261.18 115.04zm302.11 -678.71c0,-38.77 14.06,-72.43 41.75,-100.55 28.13,-27.7 62.21,-41.76 102.26,-41.76 38.77,0 72.43,14.07 100.55,42.61 27.7,28.12 41.75,62.2 41.75,102.26 0,39.19 -13.64,72.85 -41.32,100.12 -27.27,27.7 -61.36,41.34 -100.98,41.34 -40.05,0 -74.13,-13.64 -102.26,-41.34 -27.7,-27.27 -41.75,-61.78 -41.75,-102.67zm46.01 1693.16l0 -1142.7 196.84 0 0 1142.7 -196.84 0zm1192.58 -559.85c0,-129.09 -35.36,-233.06 -105.66,-311.44 -70.3,-78.82 -161.91,-118.02 -275.24,-118.02 -117.16,0 -208.77,36.22 -274.38,108.64 -66.04,72.43 -98.85,173.41 -98.85,303.36 0,138.03 33.23,244.55 99.27,319.12 66.05,74.98 160.2,112.47 281.63,112.47 116.31,0 207.92,-36.21 273.95,-109.07 66.04,-72.85 99.27,-174.68 99.27,-305.06zm189.18 -582.85l0 1142.7 -189.18 0 0 -207.06c-45.59,83.08 -104.38,146.57 -175.54,190.02 -71.15,43.89 -150.81,65.61 -239.02,65.61 -163.6,0 -296.1,-56.24 -396.23,-169.14 -100.12,-112.91 -150.41,-262.03 -150.41,-447.79 0,-187.9 48.58,-337.45 146.15,-448.64 97.14,-111.21 227.52,-166.59 390.69,-166.59 95.44,0 178.52,21.3 248.82,64.33 70.31,43.03 127.4,107.37 170.43,192.16l0 -215.6 194.28 0zm289.34 575.18c0,128.25 35.36,230.93 106.09,308.47 70.72,77.12 164.45,115.88 281.21,115.88 113.75,0 203.65,-35.36 268.84,-106.08 65.18,-70.73 98,-168.72 98,-294.41 0,-140.6 -32.82,-250.94 -98,-331.05 -65.19,-79.68 -156.37,-119.73 -272.68,-119.73 -119.3,0 -212.6,37.92 -281.19,113.76 -68.17,75.42 -102.26,179.8 -102.26,313.15zm-189.18 1124.81l0 -1699.99 186.61 0 0 215.6c44.31,-82.66 102.68,-146.15 174.68,-190.02 72.43,-44.32 153.39,-66.47 242.43,-66.47 164.89,0 296.97,56.24 396.67,168.72 100.12,112.04 149.98,261.17 149.98,446.5 0,189.18 -49.01,339.15 -146.57,450.35 -98,111.21 -228.79,166.59 -392.83,166.59 -93.72,0 -175.96,-21.29 -245.84,-64.33 -69.87,-42.6 -126.54,-106.52 -170.85,-190.87l0 763.93 -194.28 0z"/>
  <path class="fil1" d="M5891.85 4186.42l-64.86 515.64c-114.45,54.03 -226.98,94.72 -337.61,120.8 -110.64,26.07 -221.91,38.78 -335.07,38.78 -279.76,0 -504.84,-80.12 -676.5,-240.96 -171.03,-160.86 -256.87,-370.68 -256.87,-628.81 0,-269.59 93.46,-497.21 281.02,-682.87 187.57,-185.66 415.83,-278.48 684.13,-278.48 229.54,0 417.74,68.02 565.24,204.09 146.86,136.06 220.62,312.17 220.62,528.35 0,33.06 -2.54,86.47 -7.63,160.22l-1.91 10.82 -52.13 75.65 -1143.82 31.8c8.91,113.18 55.95,205.36 141.14,275.94 85.85,70.59 193.93,105.55 323.64,105.55 92.19,0 193.92,-19.71 306.46,-59.77 111.91,-39.41 230.16,-98.54 354.15,-176.75zm-1112.67 -396.75l727.37 -22.26 0 -26.07c0,-88.38 -31.15,-160.86 -92.82,-217.44 -62.31,-56.58 -140.52,-85.2 -234.61,-85.2 -104.92,0 -193.3,30.52 -263.86,92.19 -70.58,61.67 -115.72,148.14 -136.07,258.78z"/>
  <path class="fil1" d="M4209.9 3106.81l0 1520.86c0,154.5 -7.62,270.22 -22.25,348.42 -15.26,77.57 -39.41,148.78 -72.48,213.63 -69.94,134.16 -171.03,235.89 -303.92,304.56 -132.88,69.3 -293.74,103.63 -482.57,103.63 -113.18,0 -227.63,-12.72 -343.98,-37.5 -115.72,-24.8 -239.05,-62.95 -369.4,-115.72l-7.63 -464.77c124.62,66.76 237.8,115.71 339.53,147.51 101.73,31.15 197.73,47.04 287.38,47.04 130.34,0 232.07,-31.15 303.92,-93.47 71.84,-62.3 108.08,-150.05 108.08,-263.22l0 -113.17c-66.75,41.96 -133.51,73.11 -199.64,92.82 -65.49,19.71 -135.42,29.88 -208.55,29.88 -237.8,0 -429.8,-79.46 -575.41,-238.42 -146.23,-158.95 -219.35,-368.14 -219.35,-627.54 0,-269.59 82.65,-492.12 247.97,-669.51 165.3,-176.76 374.48,-265.14 626.9,-265.14 57.86,0 118.89,8.26 182.47,24.16 63.59,15.9 133.53,40.7 210.46,74.4l498.46 -18.45zm-583.67 426c-34.96,-19.7 -68.02,-34.33 -99.82,-42.6 -31.8,-8.9 -62.94,-13.35 -94.09,-13.35 -110.65,0 -204.1,46.41 -279.77,138.61 -75.66,92.82 -113.8,209.18 -113.8,349.69 0,131.6 33.05,241.61 99.82,329.34 66.76,87.11 147.51,130.98 243.51,130.98 36.88,0 76.94,-10.17 118.27,-31.8 41.96,-20.97 83.93,-52.13 125.88,-92.83l0 -768.05z"/>
  <polygon class="fil1" points="-0,4785.35 -0,1996.7 61.67,1996.7 1743.39,3572.85 1743.39,2084.44 2338.5,2084.44 2338.5,4888.35 2282.55,4888.35 595.11,3312.18 595.11,4785.35 "/>
  <polygon class="fil2" points="7416.22,3050.64 7049.53,3827.84 6735.29,3140.59 6163.92,3140.59 6943.43,4759.56 6987.27,4759.56 7398.92,3900.49 7789.26,4759.56 7834.8,4759.56 8637.38,3140.59 8152.49,3140.59 7825,3827.84 7478.49,3050.64 "/>
  <path class="fil2" d="M9297.74 3071.4c-243.3,0 -450.29,84.18 -620.38,252.53 -170.1,168.36 -254.85,374.77 -254.85,619.23 0,234.09 77.84,424.36 232.94,570.21 155.67,145.87 359.77,218.51 613.46,218.51 102.62,0 203.52,-11.53 303.85,-35.17 100.32,-23.64 202.38,-60.54 306.15,-109.54l58.82 -467.59c-112.44,70.92 -219.67,124.53 -321.16,160.28 -102.05,36.34 -194.29,54.2 -277.89,54.2 -117.62,0 -215.64,-31.71 -293.48,-95.71 -77.25,-64 -119.92,-147.6 -127.99,-250.22l1037.23 -28.82 47.27 -68.61 1.74 -9.81c2.89,-42.03 4.88,-76.79 5.97,-104.25l0 958.72 338.43 -72.65 192.58 45.54c49.59,8.08 93.97,13.84 133.18,17.88 39.79,4.03 74.95,5.76 106.67,5.76 248.5,0 449.71,-76.68 601.93,-229.47 152.79,-153.37 228.88,-354.57 228.88,-604.8 0,-236.4 -63.99,-427.81 -192.57,-574.84 -128.57,-147.03 -296.34,-220.24 -503.34,-220.24 -58.23,0 -118.76,8.64 -181.61,25.94 -62.27,17.88 -127.42,43.83 -194.87,78.41l0 -1027.99 -529.28 72.65 0 1444.22c-8.55,-177.94 -75.06,-324.37 -199.11,-439.28 -133.76,-123.38 -304.43,-185.08 -512.56,-185.08zm1240.96 1240.76l0 -728.76c48.43,-27.11 90.52,-47.28 127.42,-59.98 36.32,-13.26 67.45,-19.59 93.4,-19.59 92.24,0 167.2,35.73 224.85,107.23 58.24,71.49 87.07,165.47 87.07,282.51 0,129.73 -34.6,236.39 -104.36,320.57 -69.76,84.76 -156.24,126.85 -260.03,126.85 -21.33,0 -44.97,-2.31 -71.49,-6.92 -26.53,-4.61 -58.81,-11.54 -96.86,-21.91zm-1486.57 -787c63.99,-55.94 144.14,-83.62 239.27,-83.62 85.32,0 156.24,25.96 212.75,77.27 55.92,51.32 84.17,117.03 84.17,197.18l0 23.64 -659.59 20.17c18.45,-100.32 59.39,-178.74 123.4,-234.65z"/>
 </g>
</svg>
